<svg xmlns="http://www.w3.org/2000/svg" xmlns:xlink="http://www.w3.org/1999/xlink" style="isolation:isolate" viewBox="0 0 1436.807 900" width="1436.807" height="900" preserveAspectRatio="none"><g><linearGradient id="_lgradient_5" x1="0.09421939007737826" y1="7.879892088879029e-9" x2="1.0432407828857535" y2="0.8347746942704257" gradientTransform="matrix(1117.658,0,0,900.182,328.342,-12)" gradientUnits="userSpaceOnUse"><stop offset="0%" stop-opacity="1" style="stop-color:rgb(37,83,173)"/><stop offset="100%" stop-opacity="1" style="stop-color:rgb(60,224,125)"/></linearGradient><path d=" M 723.113 423.733 C 717.829 91.765 484.15 -1.698 367.971 -6.933 C 355.371 -7.886 336.302 -10.708 328.342 -12 L 1070.236 -12 L 1446 -12 L 1444.574 874.16 C 1364.502 894.021 1233.386 888.516 1177.837 883.28 C 1028.464 868.417 728.397 755.701 723.113 423.733 Z " fill="url(#_lgradient_5)" fill-opacity="0.9"/><path d=" M 368.236 -7.956 C 484.157 -2.732 717.318 90.524 722.59 421.756 C 727.863 752.988 1027.264 865.454 1176.306 880.284 C 1231.735 885.508 1362.557 891.001 1442.451 871.184 L 1442.451 -7.956 L 551.446 -12 L 1446 -12 L 1446 900 L -14 900 L -14 -12 L 335.191 -12 C 344.531 -10.596 358.371 -8.702 368.236 -7.956 Z " fill-rule="evenodd" fill="rgb(239,239,239)"/></g></svg>