<svg>
  <symbol fill="none" xmlns="http://www.w3.org/2000/svg" id="icon-device">
    <path id="icon-device__bg" d="M43 0h41c23.7 0 43 19.3 43 43v41c0 23.7-19.3 43-43 43H43c-23.8 0-43-19.3-43-43V43C0 19.3 19.2 0 43 0z" fill="#E1FFD2"></path>
    <path id="icon-device__path" fill-rule="evenodd" clip-rule="evenodd" d="M81.9 99.3c0-1.6 1.3-3 3-3 1.6 0 3 1.4 3 3 0 1.7-1.4 3-3 3-1.7 0-3-1.3-3-3zM74.1 52c0-.8.7-1.5 1.5-1.5s1.5.7 1.5 1.5c0 .9-.7 1.5-1.5 1.5s-1.5-.6-1.5-1.5zm7.3-1.8h12.4c1 0 1.8.8 1.8 1.8s-.8 1.8-1.8 1.8H81.4c-1 0-1.8-.8-1.8-1.8s.8-1.8 1.8-1.8zM73.2 40h23.4c2.6 0 5.2 1.1 7.1 3 1.9 1.9 2.9 4.5 2.9 7.2v47.9c0 2.7-1 5.3-2.9 7.2-1.9 1.9-4.5 3-7.1 3H73.2c-2.7 0-5.3-1.1-7.1-3-1.9-1.9-3-4.5-3-7.2V50.2c0-2.7 1.1-5.3 3-7.2 1.8-1.9 4.4-3 7.1-3zm0 3.4h23.4c1.7 0 3.5.7 4.7 2 1.3 1.3 2 3 2 4.8v47.9c0 1.8-.7 3.5-2 4.8-1.2 1.3-3 2-4.7 2H73.2c-1.8 0-3.5-.7-4.8-2-1.3-1.3-2-3-2-4.8V50.2c0-1.8.7-3.5 2-4.8 1.3-1.3 3-2 4.8-2zM86.9 37v-4.7c0-3.6-1.4-7.1-4-9.6-2.5-2.6-6-4-9.6-4H33.9c-3.6 0-7.1 1.4-9.6 4-2.6 2.5-4 6-4 9.6v56.4c0 3.6 1.4 7.1 4 9.6 2.5 2.6 6 4 9.6 4h26.7v-3.6H33.9c-2.6 0-5.2-1-7.1-2.9-1.8-1.9-2.9-4.4-2.9-7.1V32.3c0-2.6 1.1-5.2 2.9-7.1 1.9-1.8 4.5-2.9 7.1-2.9h39.4c2.7 0 5.2 1.1 7.1 2.9 1.9 1.9 2.9 4.5 2.9 7.1V37h3.6zM50.6 91c0-1.6 1.4-3 3-3 1.7 0 3 1.4 3 3 0 1.7-1.3 3-3 3-1.6 0-3-1.3-3-3zm-7.5-60.8c0-.8.7-1.5 1.5-1.5s1.5.7 1.5 1.5c0 .9-.7 1.5-1.5 1.5s-1.5-.6-1.5-1.5zm7.3-1.8h12.4c1 0 1.8.8 1.8 1.8s-.8 1.8-1.8 1.8H50.4c-1 0-1.8-.8-1.8-1.8s.8-1.8 1.8-1.8z"
      fill="url(#paint0_linear)"></path>
    <defs>
      <linearGradient id="paint0_linear" x1="38.279" y1="8.744" x2="116.292" y2="97.948" gradientUnits="userSpaceOnUse">
        <stop stop-color="#2855AE"></stop>
        <stop offset=".991" stop-color="#3CE07D"></stop>
      </linearGradient>
    </defs>
  </symbol>
  <symbol viewBox="0 0 159 121" fill="none" xmlns="http://www.w3.org/2000/svg" id="icon-palette">
    <path id="icon-palette__bg" d="M112.7 1.9C86.3-3.3 42.1 12 23.2 20.4c-34.4 23.2-21.3 54.3-10.5 67 29.9 21.6 91.6 54.5 100 12.5 8.4-42 34.2-42.9 46-38-4.3-17.9-19.6-54.8-46-60z" fill="#E1FFD2"></path>
    <path id="icon-palette__path" fill-rule="evenodd" clip-rule="evenodd" d="M82.3 102.3c-3.4 0-6.7-.4-10.1-.9-2.7-.5-5.4-1.2-8.1-2.2-2.3-.9-4.5-2-6.6-3.3-2.1-1.2-3.9-2.6-5.7-4.2-1.8-1.7-3.4-3.5-4.8-5.5-1.6-2.2-3-4.5-4.1-6.9-1.3-2.7-2.3-5.4-3.1-8.3-.9-3.5-1.7-7.2-2.1-10.8 0-3.3.4-6.7 1-10 .5-2.7 1.4-5.3 2.4-7.9 1-2.3 2.2-4.5 3.7-6.5 1.4-2 3-3.8 4.9-5.4 1.8-1.6 3.7-3.1 5.8-4.3 2.4-1.4 4.9-2.6 7.5-3.5 2.7-1 5.5-1.8 8.4-2.4 3.6-.7 7.2-1.2 10.8-1.5 3.5.1 6.9.5 10.3 1.1 2.7.5 5.4 1.3 7.9 2.4 2.2.8 4.3 2 6.3 3.3 1.8 1.2 3.5 2.6 5.1 4.2 1.6 1.6 3 3.5 4.2 5.5 1.3 2.2 2.4 4.5 3.2 6.9.9 2.6 1.6 5.2 2 7.9.6 3.4.8 6.8.9 10.3-.4 1.9-1 3.8-1.8 5.6-.6 1.5-1.4 3-2.4 4.3-.9 1.3-1.9 2.5-3.1 3.6-1.2 1-2.4 2-3.8 2.8-1.3.8-2.7 1.4-4.1 2-1.6.6-3.3 1.1-5 1.4-1.8.4-3.6.7-5.5.8-2.1.2-4.3.2-6.5.1-.6.1-1.2.3-1.7.5-.4.1-.8.3-1.1.5l-.4.4c-.2.1-.3.3-.4.4 0 .1-.1.2-.2.4 0 .1-.1.3-.1.5-.1.4-.2.8-.1 1.3.1.8.3 1.6.6 2.3.2.7.5 1.4.8 2 .6 1.1 1.1 2.1 1.8 3.1.1.7.3 1.5.3 2.2.1.5.1 1.1.1 1.6-.1.6-.2 1.2-.4 1.8-.2.6-.4 1.1-.8 1.5-.3.5-.6.9-1.1 1.2-.4.4-.9.7-1.4.9-.5.2-1 .4-1.5.5-.7.2-1.3.3-2 .3zm-.1-3.6c-3.2-.1-6.3-.4-9.4-.9-2.5-.4-5-1.1-7.4-2-2.1-.8-4.1-1.8-6.1-2.9-1.8-1.1-3.5-2.4-5-3.9-1.7-1.5-3.1-3.1-4.4-4.9-1.4-2-2.7-4.1-3.7-6.3-1.2-2.5-2.2-5.1-2.9-7.8-.9-3.3-1.6-6.6-2-10 0-3 .4-6.1.9-9.1.5-2.5 1.3-4.9 2.3-7.2.8-2 1.9-4 3.2-5.8 1.3-1.8 2.7-3.4 4.4-4.8 1.6-1.5 3.3-2.8 5.2-3.9 2.2-1.3 4.6-2.4 6.9-3.2 2.6-1 5.2-1.7 7.9-2.3 3.4-.6 6.8-1.1 10.2-1.4 3.2.1 6.4.5 9.5 1.1 2.5.4 4.9 1.1 7.3 2.1 2 .8 3.8 1.8 5.6 3 1.6 1 3.1 2.3 4.5 3.7 1.4 1.4 2.7 3.1 3.7 4.8 1.2 2 2.2 4.1 2.9 6.3.9 2.3 1.5 4.8 1.9 7.2.4 3.1.7 6.3.8 9.4-.4 1.6-.9 3.1-1.5 4.6-.6 1.3-1.2 2.5-2 3.7-.8 1-1.7 2-2.6 2.9-1 .9-2.1 1.7-3.3 2.4-1.1.7-2.3 1.3-3.5 1.7-1.4.6-2.9 1-4.4 1.3-1.7.3-3.3.6-5 .7-2.2.2-4.4.2-6.6.1-.9.2-1.8.4-2.7.7-.6.2-1.2.6-1.8 1-.4.2-.7.5-1 .7-.2.3-.5.6-.7.9-.2.4-.4.7-.6 1.1-.1.3-.3.7-.4 1.1-.1.8-.2 1.6-.1 2.5.1 1.1.4 2.1.8 3.1.3.9.6 1.7 1 2.5.5.9 1 1.9 1.6 2.8.1.4.1.7.2 1.1v1c-.1.4-.1.7-.2 1l-.3.6-.4.4c-.2.2-.5.3-.7.4-.3.1-.6.2-.8.3-.5.1-.9.2-1.3.2zM47.6 54.4c0-2.3.8-4.4 2.4-5.9 1.6-1.6 3.7-2.5 5.9-2.5s4.3.9 5.9 2.5c1.6 1.5 2.4 3.6 2.4 5.9 0 2.2-.8 4.3-2.4 5.8-1.6 1.6-3.7 2.5-5.9 2.5s-4.3-.9-5.9-2.5c-1.6-1.5-2.4-3.6-2.4-5.8zm3.6 0c0-1.3.5-2.5 1.4-3.4.8-.9 2-1.4 3.3-1.4 1.3 0 2.5.5 3.3 1.4.9.9 1.4 2.1 1.4 3.4 0 1.2-.5 2.4-1.4 3.3-.8.9-2 1.4-3.3 1.4-1.3 0-2.5-.5-3.3-1.4-.9-.9-1.4-2.1-1.4-3.3zm9.4-17.9c0-2.2.9-4.3 2.5-5.8 1.5-1.6 3.7-2.5 5.9-2.5s4.3.9 5.9 2.5c1.5 1.5 2.4 3.6 2.4 5.8 0 2.3-.9 4.4-2.4 5.9-1.6 1.6-3.7 2.5-5.9 2.5s-4.4-.9-5.9-2.5c-1.6-1.5-2.5-3.6-2.5-5.9zm3.6 0c0-1.2.5-2.4 1.4-3.3.9-.9 2.1-1.4 3.4-1.4 1.2 0 2.4.5 3.3 1.4.9.9 1.4 2.1 1.4 3.3 0 1.3-.5 2.5-1.4 3.4-.9.9-2.1 1.4-3.3 1.4-1.3 0-2.5-.5-3.4-1.4-.9-.9-1.4-2.1-1.4-3.4zm18.6 0c0-2.2.9-4.3 2.5-5.8 1.5-1.6 3.6-2.5 5.8-2.5 2.3 0 4.4.9 5.9 2.5 1.6 1.5 2.5 3.6 2.5 5.8 0 2.3-.9 4.4-2.5 5.9-1.5 1.6-3.6 2.5-5.9 2.5-2.2 0-4.3-.9-5.8-2.5-1.6-1.5-2.5-3.6-2.5-5.9zm3.6 0c0-1.2.5-2.4 1.4-3.3.9-.9 2.1-1.4 3.3-1.4 1.3 0 2.5.5 3.4 1.4.9.9 1.4 2.1 1.4 3.3 0 1.3-.5 2.5-1.4 3.4-.9.9-2.1 1.4-3.4 1.4-1.2 0-2.4-.5-3.3-1.4-.9-.9-1.4-2.1-1.4-3.4zm9.5 18c0-2.2.9-4.3 2.4-5.9 1.6-1.6 3.7-2.4 5.9-2.4s4.3.8 5.9 2.4c1.6 1.6 2.5 3.7 2.5 5.9s-.9 4.3-2.5 5.9c-1.6 1.5-3.7 2.4-5.9 2.4s-4.3-.9-5.9-2.4c-1.5-1.6-2.4-3.7-2.4-5.9zm3.6 0c0-1.3.5-2.5 1.4-3.4.9-.8 2.1-1.3 3.3-1.3 1.3 0 2.5.5 3.4 1.3.9.9 1.4 2.1 1.4 3.4 0 1.2-.5 2.5-1.4 3.3-.9.9-2.1 1.4-3.4 1.4-1.2 0-2.4-.5-3.3-1.4-.9-.8-1.4-2.1-1.4-3.3z"
      fill="url(#paint0_linear)"></path>
    <defs>
      <linearGradient id="paint0_linear" x1="55.283" y1="9.411" x2="127.539" y2="96.011" gradientUnits="userSpaceOnUse">
        <stop stop-color="#2855AE"></stop>
        <stop offset=".991" stop-color="#3CE07D"></stop>
      </linearGradient>
    </defs>
  </symbol>
  <symbol fill="none" xmlns="http://www.w3.org/2000/svg" id="icon-seo">
    <path id="icon-seo__bg" d="M21.008 56.465C20.253 76.51 6.851 93.062.244 98.833-1.17 110.222 2.887 133 30.447 133c27.559 0 64.965-22.778 80.224-34.167 17.303-14.123 44.642-50.021 15.573-80.635-29.07-30.614-69.056-15.793-85.416-4.556-6.292 5.922-19.065 22.778-19.82 42.823z"
      fill="#E1FFD2"></path>
    <path id="icon-seo__path" fill-rule="evenodd" clip-rule="evenodd" d="M57.574 73.35c-4.119-5.08-6.653-11.43-6.653-18.413 0-7.302 3.168-14.604 8.237-20C64.545 29.857 71.515 27 79.118 27c7.288 0 14.575 2.857 19.644 7.937 5.387 5.396 8.238 12.38 8.238 20 0 7.619-2.851 14.603-8.238 20-5.386 5.079-12.356 8.254-19.643 8.254-6.97 0-13.307-2.54-18.376-6.985l-30.416 30.159c-.317.635-.95.635-1.268.635-.633 0-1.267 0-1.584-.635-.633-.635-.633-1.905 0-2.54l30.1-30.476zM55.04 54.936c0-6.35 2.534-12.381 6.97-17.143 4.435-4.445 10.455-6.984 17.109-6.984 6.336 0 12.356 2.54 16.792 6.984 4.436 4.444 6.97 10.793 6.97 17.143 0 6.349-2.218 12.698-6.97 16.825-4.436 4.762-10.456 7.302-16.792 7.302-6.654 0-12.674-2.54-17.11-7.302a23.81 23.81 0 0 1-6.97-16.825z"
      fill="url(#paint0_linear)"></path>
    <defs>
      <linearGradient id="paint0_linear" x1="43.667" y1="18.111" x2="112.926" y2="100.333" gradientUnits="userSpaceOnUse">
        <stop stop-color="#2553AD"></stop>
        <stop offset="1" stop-color="#3CE07D"></stop>
      </linearGradient>
    </defs>
  </symbol>
  <symbol fill="none" xmlns="http://www.w3.org/2000/svg" id="icon-setting">
    <path id="icon-setting__bg" d="M6.036 26.7c-10.9 36.2-4.6 78.2 0 94.7 34.5 11 107.6 26.4 124.2 0 16.7-26.4-6.9-85.5-20.7-111.7-30-9.4-92.5-19.2-103.5 17z" fill="#E1FFD2"></path>
    <path id="icon-setting__path" fill-rule="evenodd" clip-rule="evenodd" d="M86.336 53.2V103c0 1.9.8 3.8 2.2 5.2 1.3 1.3 3.2 2.1 5.1 2.1 2 0 3.8-.8 5.2-2.1 1.4-1.4 2.1-3.3 2.1-5.2V53.2c.2-.1.4-.3.5-.4 2.1-2.1 3.2-4.9 3.2-7.8 0-2.9-1.1-5.7-3.2-7.8-.1-.1-.3-.3-.5-.4V34c0-1.9-.7-3.8-2.1-5.2-1.4-1.3-3.2-2.1-5.2-2.1-1.9 0-3.8.8-5.1 2.1-1.4 1.4-2.2 3.3-2.2 5.2v2.8l-.4.4c-2.1 2.1-3.3 4.9-3.3 7.8 0 2.9 1.2 5.7 3.3 7.8l.4.4zm11 2.2V103c0 1-.4 1.9-1 2.6-.7.7-1.7 1.1-2.7 1.1-.9 0-1.9-.4-2.6-1.1-.7-.7-1.1-1.6-1.1-2.6V55.4c1.2.4 2.5.6 3.7.6 1.3 0 2.6-.2 3.7-.6zm0-20.8V34c0-1-.4-1.9-1-2.6-.7-.7-1.7-1.1-2.7-1.1-.9 0-1.9.4-2.6 1.1-.7.7-1.1 1.6-1.1 2.6v.6c1.2-.4 2.5-.6 3.7-.6 1.3 0 2.6.2 3.7.6zm3.7 10.4c0 1.9-.8 3.8-2.2 5.2-1.4 1.4-3.2 2.1-5.2 2.1-1.9 0-3.8-.7-5.1-2.1-1.4-1.4-2.2-3.3-2.2-5.2 0-1.9.8-3.8 2.2-5.2 1.3-1.4 3.2-2.1 5.1-2.1 2 0 3.8.7 5.2 2.1 1.4 1.4 2.2 3.3 2.2 5.2zm-25.7 15.3V34c0-1.9-.8-3.8-2.2-5.2-1.3-1.3-3.2-2.1-5.1-2.1-2 0-3.8.8-5.2 2.1-1.4 1.4-2.1 3.3-2.1 5.2v26.3c-.2.1-.4.3-.5.4-2.1 2.1-3.2 4.9-3.2 7.8 0 2.9 1.1 5.7 3.2 7.8.1.1.3.3.5.4V103c0 1.9.7 3.8 2.1 5.2 1.4 1.3 3.2 2.1 5.2 2.1 1.9 0 3.8-.8 5.1-2.1 1.4-1.4 2.2-3.3 2.2-5.2V76.7l.4-.4c2.1-2.1 3.3-4.9 3.3-7.8 0-2.9-1.2-5.7-3.3-7.8l-.4-.4zm-11-2.2V34c0-1 .4-1.9 1-2.6.7-.7 1.7-1.1 2.7-1.1.9 0 1.9.4 2.6 1.1.7.7 1.1 1.6 1.1 2.6v24.1c-1.2-.4-2.5-.6-3.7-.6-1.3 0-2.6.2-3.7.6zm0 20.8V103c0 1 .4 1.9 1 2.6.7.7 1.7 1.1 2.7 1.1.9 0 1.9-.4 2.6-1.1.7-.7 1.1-1.6 1.1-2.6V78.9c-1.2.4-2.5.6-3.7.6-1.3 0-2.6-.2-3.7-.6zm-3.7-10.4c0-1.9.8-3.8 2.2-5.2 1.4-1.4 3.2-2.1 5.2-2.1 1.9 0 3.8.7 5.1 2.1 1.4 1.4 2.2 3.3 2.2 5.2 0 1.9-.8 3.8-2.2 5.2-1.3 1.4-3.2 2.1-5.1 2.1-2 0-3.8-.7-5.2-2.1-1.4-1.4-2.2-3.3-2.2-5.2zm-11 15.3V34c0-1.9-.8-3.8-2.2-5.2-1.3-1.3-3.2-2.1-5.1-2.1-2 0-3.8.8-5.2 2.1-1.3 1.4-2.1 3.3-2.1 5.2v49.8c-.2.1-.3.3-.5.4-2.1 2.1-3.2 4.9-3.2 7.8 0 2.9 1.1 5.7 3.2 7.8.2.1.3.3.5.4v2.8c0 1.9.8 3.8 2.1 5.2 1.4 1.3 3.2 2.1 5.2 2.1 1.9 0 3.8-.8 5.1-2.1 1.4-1.4 2.2-3.3 2.2-5.2v-2.8c.2-.1.3-.3.5-.4 2-2.1 3.2-4.9 3.2-7.8 0-2.9-1.2-5.7-3.2-7.8-.2-.1-.3-.3-.5-.4zm-11-2.2V34c0-1 .4-1.9 1.1-2.6.7-.7 1.6-1.1 2.6-1.1s1.9.4 2.6 1.1c.7.7 1.1 1.6 1.1 2.6v47.6c-1.2-.4-2.4-.6-3.7-.6-1.3 0-2.5.2-3.7.6zm0 20.8v.6c0 1 .4 1.9 1.1 2.6.7.7 1.6 1.1 2.6 1.1s1.9-.4 2.6-1.1c.7-.7 1.1-1.6 1.1-2.6v-.6c-1.2.4-2.4.6-3.7.6-1.3 0-2.5-.2-3.7-.6zm-3.6-10.4c0-1.9.7-3.8 2.1-5.2 1.4-1.4 3.2-2.1 5.2-2.1 1.9 0 3.8.7 5.2 2.1 1.3 1.4 2.1 3.3 2.1 5.2 0 1.9-.8 3.8-2.1 5.2-1.4 1.4-3.3 2.1-5.2 2.1-2 0-3.8-.7-5.2-2.1-1.4-1.4-2.1-3.3-2.1-5.2z"
      fill="url(#paint0_linear)"></path>
    <defs>
      <linearGradient id="paint0_linear" x1="46.607" y1="17.411" x2="119.991" y2="93.797" gradientUnits="userSpaceOnUse">
        <stop stop-color="#2855AE"></stop>
        <stop offset=".991" stop-color="#3CE07D"></stop>
      </linearGradient>
    </defs>
  </symbol>
</svg>