<svg width="736" height="614" fill="none" xmlns="http://www.w3.org/2000/svg">
  <path d="M663.5 165.5c-168-192.8-512-177.67-663-146v557C168.83 608.33 498.6 648.8 471 556c-27.6-92.8 49.83-132.33 92-140.5 103.5-3 268.5-57.2 100.5-250z" fill="url(#paint0_linear)"/>
  <circle cx="169.48" cy="408.03" r="105" transform="rotate(-96.85 169.48 408.03)" fill="url(#paint1_linear)"/>
  <circle cx="71.43" cy="250.1" r="63.5" transform="rotate(-96.85 71.43 250.1)" fill="url(#paint2_linear)"/>
  <circle cx="91.06" cy="111.77" r="42.5" transform="rotate(-96.85 91.06 111.77)" fill="url(#paint3_linear)"/>
  <defs>
    <linearGradient id="paint0_linear" x1="1" y1="19.5" x2="509" y2="681" gradientUnits="userSpaceOnUse">
      <stop stop-color="#2553AD"/>
      <stop offset="1" stop-color="#3CE07D"/>
    </linearGradient>
    <linearGradient id="paint1_linear" x1="274.48" y1="285.53" x2="64.48" y2="544.03" gradientUnits="userSpaceOnUse">
      <stop stop-color="#2553AD"/>
      <stop offset="1" stop-color="#3CE07D"/>
    </linearGradient>
    <linearGradient id="paint2_linear" x1="134.93" y1="176.01" x2="7.93" y2="332.35" gradientUnits="userSpaceOnUse">
      <stop stop-color="#2553AD"/>
      <stop offset="1" stop-color="#3CE07D"/>
    </linearGradient>
    <linearGradient id="paint3_linear" x1="133.56" y1="62.18" x2="48.56" y2="166.81" gradientUnits="userSpaceOnUse">
      <stop stop-color="#2553AD"/>
      <stop offset="1" stop-color="#3CE07D"/>
    </linearGradient>
  </defs>
</svg>
