<svg xmlns="http://www.w3.org/2000/svg" xmlns:xlink="http://www.w3.org/1999/xlink" aria-hidden="true" style="position:absolute;width:0;height:0;overflow:hidden" version="1.1">
    <defs>
        <symbol id="icon-mail" viewBox="0 0 24 24">
            <title>
                mail
            </title>
            <path d="M15 12c0 0.408-0.081 0.795-0.227 1.147-0.152 0.366-0.375 0.697-0.652 0.974s-0.608 0.5-0.974 0.652c-0.352 0.146-0.739 0.227-1.147 0.227s-0.795-0.081-1.147-0.227c-0.366-0.152-0.697-0.375-0.974-0.652s-0.5-0.608-0.652-0.974c-0.146-0.352-0.227-0.739-0.227-1.147s0.081-0.795 0.227-1.147c0.152-0.366 0.375-0.697 0.652-0.974s0.608-0.5 0.974-0.652c0.352-0.146 0.739-0.227 1.147-0.227s0.795 0.081 1.147 0.227c0.366 0.152 0.697 0.375 0.974 0.652s0.5 0.608 0.652 0.974c0.146 0.352 0.227 0.739 0.227 1.147zM15.74 15.318c0.13 0.182 0.274 0.353 0.431 0.51 0.368 0.368 0.808 0.665 1.298 0.868 0.474 0.196 0.991 0.304 1.531 0.304s1.057-0.108 1.53-0.303c0.49-0.203 0.93-0.5 1.298-0.868s0.665-0.808 0.868-1.298c0.196-0.474 0.304-0.991 0.304-1.531v-1c0-1.488-0.296-2.91-0.834-4.207-0.558-1.347-1.375-2.558-2.389-3.571s-2.225-1.83-3.571-2.388c-1.297-0.537-2.719-0.833-4.207-0.833s-2.909 0.296-4.207 0.833c-1.346 0.558-2.557 1.375-3.571 2.389s-1.83 2.225-2.388 3.571c-0.537 1.298-0.833 2.719-0.833 4.207s0.296 2.91 0.834 4.207c0.558 1.347 1.375 2.558 2.389 3.571s2.225 1.83 3.571 2.388c1.297 0.537 2.719 0.833 4.207 0.833 1.245 0 2.443-0.207 3.559-0.588 1.145-0.391 2.202-0.963 3.132-1.681 0.437-0.337 0.518-0.965 0.181-1.403s-0.965-0.518-1.403-0.181c-0.757 0.585-1.62 1.052-2.555 1.371-0.911 0.311-1.891 0.481-2.913 0.481-1.221 0-2.383-0.242-3.442-0.681-1.101-0.456-2.092-1.124-2.923-1.955s-1.499-1.822-1.955-2.922c-0.439-1.057-0.682-2.219-0.682-3.44s0.242-2.382 0.681-3.441c0.456-1.101 1.124-2.092 1.955-2.923s1.822-1.499 2.922-1.955c1.059-0.439 2.221-0.681 3.441-0.681s2.383 0.242 3.442 0.681c1.101 0.456 2.092 1.124 2.923 1.955 0.831 0.83 1.499 1.822 1.955 2.922 0.438 1.058 0.681 2.22 0.681 3.441v1c0 0.273-0.054 0.53-0.151 0.765-0.101 0.244-0.25 0.464-0.435 0.65-0.185 0.185-0.406 0.334-0.65 0.435-0.234 0.096-0.491 0.15-0.764 0.15s-0.53-0.054-0.765-0.151c-0.244-0.101-0.464-0.25-0.65-0.435-0.185-0.185-0.334-0.406-0.435-0.65-0.096-0.234-0.15-0.491-0.15-0.764v-5c0-0.552-0.448-1-1-1s-1 0.448-1 1c-0.332-0.25-0.697-0.459-1.088-0.621-0.59-0.245-1.237-0.379-1.912-0.379s-1.322 0.134-1.912 0.379c-0.613 0.254-1.163 0.625-1.624 1.085s-0.832 1.011-1.085 1.623c-0.245 0.591-0.379 1.238-0.379 1.913s0.134 1.322 0.379 1.912c0.254 0.613 0.625 1.163 1.085 1.623s1.011 0.832 1.623 1.085c0.591 0.246 1.238 0.38 1.913 0.38s1.322-0.134 1.912-0.379c0.613-0.254 1.163-0.625 1.623-1.085 0.070-0.070 0.139-0.143 0.205-0.217z"/>
        </symbol>
        <symbol id="icon-portfolio" viewBox="0 0 24 24">
            <title>
                portfolio
            </title>
            <path d="M9 6v-1c0-0.137 0.027-0.266 0.075-0.382 0.050-0.122 0.125-0.232 0.218-0.325s0.203-0.167 0.325-0.218c0.116-0.048 0.245-0.075 0.382-0.075h4c0.137 0 0.266 0.027 0.382 0.075 0.122 0.050 0.232 0.125 0.325 0.218s0.167 0.203 0.218 0.325c0.048 0.116 0.075 0.245 0.075 0.382v1zM9 20v-12h6v12zM7 8v12h-4v-12zM17 6v-1c0-0.405-0.081-0.793-0.228-1.148-0.152-0.368-0.375-0.698-0.651-0.974s-0.606-0.499-0.974-0.651c-0.354-0.146-0.742-0.227-1.147-0.227h-4c-0.405 0-0.793 0.081-1.148 0.228-0.367 0.152-0.697 0.375-0.973 0.651s-0.499 0.606-0.651 0.973c-0.147 0.355-0.228 0.743-0.228 1.148v1h-5c-0.552 0-1 0.448-1 1v14c0 0.552 0.448 1 1 1h20c0.552 0 1-0.448 1-1v-14c0-0.552-0.448-1-1-1zM17 20v-12h4v12z"/>
        </symbol>
        <symbol id="icon-github" viewBox="0 0 24 24">
            <title>
                github
            </title>
            <path d="M8 18.223c-0.4 0.082-0.742 0.113-1.033 0.111-0.336-0.002-0.609-0.050-0.837-0.122-0.231-0.073-0.432-0.176-0.614-0.302-0.119-0.082-0.234-0.177-0.346-0.282-0.078-0.073-0.154-0.151-0.23-0.234-0.184-0.2-0.353-0.415-0.543-0.656-0.104-0.132-0.215-0.273-0.329-0.41-0.046-0.055-0.093-0.111-0.142-0.167-0.067-0.076-0.137-0.153-0.211-0.229-0.1-0.103-0.208-0.205-0.325-0.303-0.161-0.134-0.341-0.261-0.544-0.368-0.185-0.098-0.386-0.177-0.604-0.232-0.536-0.134-1.079 0.192-1.213 0.728s0.192 1.079 0.728 1.213c0.051 0.013 0.102 0.032 0.155 0.060 0.059 0.031 0.124 0.075 0.198 0.136 0.054 0.045 0.111 0.098 0.172 0.161 0.045 0.046 0.091 0.097 0.14 0.152 0.035 0.040 0.071 0.083 0.108 0.127 0.094 0.113 0.189 0.234 0.296 0.37 0.183 0.232 0.397 0.505 0.64 0.769 0.104 0.114 0.215 0.228 0.335 0.341 0.173 0.163 0.364 0.322 0.578 0.469 0.332 0.229 0.711 0.426 1.149 0.564 0.431 0.136 0.904 0.211 1.425 0.215 0.33 0.002 0.679-0.024 1.047-0.080v1.746c0 0.552 0.448 1 1 1s1-0.448 1-1v-3.87c0-0.021-0.001-0.045-0.002-0.069-0.006-0.084-0.007-0.168-0.004-0.251 0.010-0.29 0.073-0.577 0.187-0.846 0.11-0.258 0.269-0.502 0.478-0.719 0.145-0.149 0.246-0.347 0.274-0.572 0.068-0.548-0.321-1.048-0.869-1.116-0.34-0.042-0.677-0.094-1.006-0.159-0.79-0.156-1.518-0.385-2.147-0.733-0.349-0.193-0.666-0.422-0.946-0.696-0.249-0.243-0.475-0.526-0.671-0.858-0.208-0.353-0.386-0.768-0.52-1.262-0.172-0.626-0.274-1.384-0.274-2.305-0.003-0.564 0.1-1.129 0.312-1.661 0.203-0.513 0.506-0.997 0.912-1.423 0.257-0.274 0.35-0.672 0.213-1.040-0.18-0.482-0.27-0.997-0.257-1.519 0.007-0.29 0.045-0.582 0.117-0.872 0.175 0.038 0.398 0.103 0.673 0.21 0.491 0.191 1.145 0.518 1.973 1.073 0.235 0.157 0.533 0.214 0.825 0.133 1.997-0.557 4.242-0.602 6.47 0.002 0.271 0.073 0.569 0.033 0.818-0.135 0.829-0.555 1.482-0.882 1.973-1.073 0.275-0.107 0.499-0.171 0.673-0.209 0.070 0.284 0.109 0.576 0.117 0.872 0.012 0.503-0.069 1.017-0.257 1.521-0.129 0.352-0.058 0.755 0.213 1.040 0.386 0.405 0.696 0.883 0.907 1.411 0.205 0.505 0.318 1.061 0.318 1.646 0 0.936-0.105 1.708-0.281 2.347-0.138 0.499-0.319 0.918-0.53 1.272-0.199 0.333-0.427 0.615-0.679 0.857-0.284 0.272-0.603 0.498-0.955 0.688-0.623 0.336-1.343 0.555-2.123 0.7-0.322 0.060-0.651 0.106-0.983 0.143-0.21 0.023-0.418 0.114-0.584 0.275-0.397 0.384-0.408 1.017-0.024 1.414 0.067 0.069 0.13 0.143 0.188 0.219 0.174 0.229 0.306 0.489 0.387 0.767 0.078 0.267 0.111 0.554 0.087 0.851 0 0.024-0.001 0.051-0.003 0.078v3.869c0 0.552 0.448 1 1 1s1-0.448 1-1v-3.833c0.037-0.529-0.023-1.044-0.165-1.529-0.037-0.126-0.080-0.25-0.127-0.372 0.777-0.171 1.563-0.427 2.297-0.823 0.492-0.266 0.962-0.595 1.388-1.004 0.38-0.364 0.722-0.787 1.014-1.276 0.31-0.52 0.559-1.106 0.741-1.765 0.232-0.84 0.353-1.795 0.353-2.878 0-0.844-0.163-1.652-0.46-2.393-0.231-0.576-0.542-1.11-0.919-1.589 0.148-0.561 0.212-1.128 0.198-1.687-0.019-0.781-0.189-1.543-0.491-2.246-0.122-0.283-0.359-0.482-0.635-0.564-0.146-0.043-0.511-0.115-1.113-0.024-0.349 0.053-0.772 0.16-1.276 0.356-0.559 0.217-1.218 0.544-1.984 1.029-2.273-0.541-4.557-0.509-6.646-0.002-0.765-0.484-1.423-0.81-1.981-1.027-0.504-0.196-0.927-0.303-1.276-0.356-0.602-0.092-0.967-0.020-1.113 0.024-0.296 0.088-0.521 0.3-0.635 0.565-0.313 0.732-0.472 1.494-0.49 2.247-0.013 0.574 0.055 1.141 0.199 1.686-0.393 0.497-0.702 1.039-0.927 1.607-0.307 0.774-0.457 1.593-0.452 2.41 0 1.056 0.118 1.994 0.343 2.821 0.178 0.653 0.422 1.234 0.727 1.751 0.287 0.487 0.624 0.91 0.999 1.275 0.421 0.41 0.885 0.742 1.372 1.012 0.752 0.416 1.56 0.685 2.357 0.867-0.186 0.469-0.287 0.962-0.304 1.457-0.005 0.141-0.003 0.282 0.005 0.423z"/>
        </symbol>
        <symbol id="icon-website" viewBox="0 0 24 24">
            <title>
                website
            </title>
            <path d="M16.951 11c-0.128-1.602-0.494-3.195-1.102-4.72-0.413-1.035-0.936-2.037-1.572-2.99 0.4 0.104 0.788 0.235 1.164 0.391 1.101 0.456 2.092 1.124 2.922 1.955 0.831 0.831 1.499 1.822 1.955 2.922 0.317 0.766 0.532 1.585 0.626 2.442zM14.279 20.709c0.614-0.921 1.137-1.911 1.556-2.955 0.594-1.48 0.978-3.070 1.113-4.754h3.997c-0.095 0.857-0.309 1.676-0.626 2.442-0.456 1.101-1.124 2.092-1.955 2.922s-1.822 1.499-2.922 1.955c-0.375 0.155-0.763 0.286-1.162 0.39zM7.049 13c0.128 1.602 0.494 3.195 1.102 4.72 0.413 1.035 0.936 2.037 1.572 2.99-0.4-0.104-0.788-0.235-1.164-0.391-1.101-0.456-2.092-1.124-2.922-1.955-0.831-0.831-1.499-1.822-1.955-2.922-0.318-0.766-0.533-1.585-0.627-2.442zM9.721 3.291c-0.614 0.921-1.137 1.91-1.556 2.955-0.594 1.48-0.978 3.070-1.114 4.754h-3.996c0.095-0.857 0.309-1.676 0.626-2.442 0.456-1.101 1.124-2.092 1.955-2.922s1.822-1.499 2.922-1.955c0.375-0.155 0.763-0.286 1.162-0.39zM11.997 1c-1.487 0-2.908 0.296-4.204 0.833-1.347 0.558-2.558 1.375-3.571 2.389s-1.831 2.224-2.389 3.571c-0.537 1.297-0.833 2.719-0.833 4.207s0.296 2.91 0.833 4.207c0.558 1.347 1.375 2.558 2.388 3.571s2.224 1.831 3.571 2.388c1.296 0.537 2.716 0.833 4.203 0.833 0.001 0 0.003 0 0.004 0s0.002 0 0.003 0c1.487 0 2.907-0.296 4.204-0.833 1.347-0.558 2.558-1.375 3.571-2.388s1.831-2.224 2.388-3.571c0.539-1.297 0.835-2.719 0.835-4.207s-0.296-2.91-0.833-4.207c-0.558-1.347-1.375-2.558-2.388-3.571s-2.224-1.831-3.571-2.388c-1.297-0.537-2.717-0.833-4.204-0.834-0.001 0-0.003 0-0.004 0s-0.002 0-0.003 0zM14.945 13c-0.127 1.395-0.46 2.748-0.966 4.009-0.5 1.246-1.169 2.404-1.978 3.442-0.842-1.082-1.506-2.253-1.992-3.473-0.513-1.286-0.83-2.628-0.953-3.979zM11.999 3.549c0.842 1.082 1.506 2.253 1.992 3.473 0.513 1.286 0.83 2.628 0.953 3.979h-5.889c0.127-1.395 0.46-2.748 0.966-4.009 0.5-1.246 1.169-2.404 1.978-3.442z"/>
        </symbol>
        <symbol id="icon-home" viewBox="0 0 24 24">
            <title>
                home
            </title>
            <path d="M2.386 8.211c-0.236 0.184-0.386 0.469-0.386 0.789v11c0 0.405 0.081 0.793 0.228 1.148 0.152 0.368 0.375 0.698 0.651 0.974s0.606 0.499 0.974 0.651c0.354 0.146 0.742 0.227 1.147 0.227h14c0.405 0 0.793-0.081 1.148-0.228 0.368-0.152 0.698-0.375 0.974-0.651s0.499-0.606 0.651-0.974c0.146-0.354 0.227-0.742 0.227-1.147v-11c-0.001-0.3-0.134-0.593-0.386-0.789l-9-7c-0.358-0.275-0.861-0.285-1.228 0zM16 21v-9c0-0.552-0.448-1-1-1h-6c-0.552 0-1 0.448-1 1v9h-3c-0.137 0-0.266-0.027-0.382-0.075-0.122-0.050-0.232-0.125-0.325-0.218s-0.167-0.203-0.218-0.325c-0.048-0.116-0.075-0.245-0.075-0.382v-10.511l8-6.222 8 6.222v10.511c0 0.137-0.027 0.266-0.075 0.382-0.050 0.122-0.125 0.232-0.218 0.325s-0.203 0.167-0.325 0.218c-0.116 0.048-0.245 0.075-0.382 0.075zM10 21v-8h4v8z"/>
        </symbol>
        <symbol id="icon-about" viewBox="0 0 24 24">
            <title>
                about
            </title>
            <path d="M23 12c0-1.488-0.296-2.91-0.833-4.207-0.558-1.347-1.375-2.558-2.388-3.571s-2.224-1.831-3.571-2.388c-1.298-0.538-2.72-0.834-4.208-0.834s-2.91 0.296-4.207 0.833c-1.347 0.558-2.558 1.375-3.571 2.389s-1.831 2.224-2.389 3.571c-0.537 1.297-0.833 2.719-0.833 4.207s0.296 2.91 0.833 4.207c0.558 1.347 1.375 2.558 2.388 3.571s2.224 1.831 3.571 2.388c1.298 0.538 2.72 0.834 4.208 0.834s2.91-0.296 4.207-0.833c1.347-0.558 2.558-1.375 3.571-2.388s1.831-2.224 2.388-3.571c0.538-1.298 0.834-2.72 0.834-4.208zM21 12c0 1.221-0.243 2.383-0.681 3.442-0.456 1.101-1.124 2.092-1.955 2.922s-1.822 1.499-2.922 1.955c-1.059 0.438-2.221 0.681-3.442 0.681s-2.383-0.243-3.442-0.681c-1.101-0.456-2.092-1.124-2.922-1.955-0.831-0.831-1.499-1.822-1.955-2.922-0.438-1.059-0.681-2.221-0.681-3.442s0.243-2.383 0.681-3.442c0.456-1.101 1.124-2.092 1.955-2.922s1.822-1.499 2.922-1.955c1.059-0.438 2.221-0.681 3.442-0.681s2.383 0.243 3.442 0.681c1.101 0.456 2.092 1.124 2.922 1.955 0.831 0.831 1.499 1.822 1.955 2.922 0.438 1.059 0.681 2.221 0.681 3.442zM13 16v-4c0-0.552-0.448-1-1-1s-1 0.448-1 1v4c0 0.552 0.448 1 1 1s1-0.448 1-1zM13 8c0-0.552-0.448-1-1-1s-1 0.448-1 1 0.448 1 1 1 1-0.448 1-1z"/>
        </symbol>
        <symbol id="icon-linkedin" viewBox="0 0 24 24">
            <title>
                linkedin
            </title>
            <path d="M16 7c-0.946 0-1.851 0.188-2.677 0.53-0.857 0.355-1.628 0.875-2.273 1.52s-1.165 1.415-1.52 2.273c-0.342 0.826-0.53 1.731-0.53 2.677v7c0 0.552 0.448 1 1 1h4c0.552 0 1-0.448 1-1v-7c0-0.137 0.027-0.266 0.075-0.382 0.050-0.122 0.125-0.232 0.218-0.325s0.203-0.167 0.325-0.218c0.116-0.048 0.245-0.075 0.382-0.075s0.266 0.027 0.382 0.075c0.122 0.050 0.232 0.125 0.325 0.218s0.167 0.203 0.218 0.325c0.048 0.116 0.075 0.245 0.075 0.382v7c0 0.552 0.448 1 1 1h4c0.552 0 1-0.448 1-1v-7c0-0.946-0.188-1.851-0.53-2.677-0.355-0.857-0.875-1.628-1.52-2.273s-1.415-1.165-2.273-1.52c-0.826-0.342-1.731-0.53-2.677-0.53zM16 9c0.679 0 1.324 0.135 1.912 0.378 0.611 0.253 1.162 0.624 1.624 1.086s0.833 1.013 1.086 1.624c0.243 0.588 0.378 1.233 0.378 1.912v6h-2v-6c0-0.405-0.081-0.793-0.228-1.148-0.152-0.368-0.375-0.698-0.651-0.974s-0.606-0.499-0.974-0.651c-0.354-0.146-0.742-0.227-1.147-0.227s-0.793 0.081-1.148 0.228c-0.368 0.152-0.698 0.375-0.974 0.651s-0.499 0.606-0.651 0.974c-0.146 0.354-0.227 0.742-0.227 1.147v6h-2v-6c0-0.679 0.135-1.324 0.378-1.912 0.253-0.611 0.624-1.162 1.086-1.624s1.013-0.833 1.624-1.086c0.588-0.243 1.233-0.378 1.912-0.378zM2 8c-0.552 0-1 0.448-1 1v12c0 0.552 0.448 1 1 1h4c0.552 0 1-0.448 1-1v-12c0-0.552-0.448-1-1-1zM3 10h2v10h-2zM7 4c0-0.405-0.081-0.793-0.228-1.148-0.152-0.367-0.375-0.697-0.651-0.973s-0.606-0.499-0.973-0.651c-0.355-0.147-0.743-0.228-1.148-0.228s-0.793 0.081-1.148 0.228c-0.367 0.152-0.697 0.375-0.973 0.651s-0.499 0.606-0.651 0.973c-0.147 0.355-0.228 0.743-0.228 1.148s0.081 0.793 0.228 1.148c0.152 0.367 0.375 0.697 0.651 0.973s0.606 0.499 0.973 0.651c0.355 0.147 0.743 0.228 1.148 0.228s0.793-0.081 1.148-0.228c0.367-0.152 0.697-0.375 0.973-0.651s0.499-0.606 0.651-0.973c0.147-0.355 0.228-0.743 0.228-1.148zM5 4c0 0.137-0.027 0.266-0.075 0.382-0.051 0.122-0.125 0.232-0.218 0.325s-0.203 0.167-0.325 0.218c-0.116 0.048-0.245 0.075-0.382 0.075s-0.266-0.027-0.382-0.075c-0.122-0.051-0.232-0.125-0.325-0.218s-0.167-0.203-0.218-0.325c-0.048-0.116-0.075-0.245-0.075-0.382s0.027-0.266 0.075-0.382c0.051-0.122 0.125-0.232 0.218-0.325s0.203-0.167 0.325-0.218c0.116-0.048 0.245-0.075 0.382-0.075s0.266 0.027 0.382 0.075c0.122 0.051 0.232 0.125 0.325 0.218s0.167 0.203 0.218 0.325c0.048 0.116 0.075 0.245 0.075 0.382z"/>
        </symbol>
        <symbol id="icon-contact" viewBox="0 0 24 24">
            <title>
                contact
            </title>
            <path d="M3 7.921l8.427 5.899c0.34 0.235 0.795 0.246 1.147 0l8.426-5.899v10.079c0 0.134-0.027 0.261-0.075 0.377-0.051 0.122-0.126 0.234-0.22 0.328s-0.206 0.169-0.328 0.22c-0.116 0.048-0.243 0.075-0.377 0.075h-16c-0.134 0-0.261-0.027-0.377-0.075-0.122-0.051-0.234-0.126-0.328-0.22s-0.169-0.206-0.22-0.328c-0.048-0.116-0.075-0.243-0.075-0.377zM1 6.012v11.988c0 0.403 0.081 0.79 0.227 1.143 0.153 0.369 0.377 0.7 0.653 0.977s0.608 0.501 0.977 0.653c0.353 0.146 0.74 0.227 1.143 0.227h16c0.403 0 0.79-0.081 1.143-0.227 0.369-0.153 0.7-0.377 0.977-0.653s0.501-0.608 0.653-0.977c0.146-0.353 0.227-0.74 0.227-1.143v-12c0-0.006 0-0.012 0-0.017-0.002-0.397-0.083-0.777-0.227-1.125-0.153-0.369-0.377-0.7-0.653-0.977s-0.608-0.501-0.977-0.653c-0.353-0.147-0.74-0.228-1.143-0.228h-16c-0.403 0-0.79 0.081-1.143 0.227-0.369 0.153-0.7 0.377-0.977 0.653s-0.5 0.608-0.653 0.977c-0.144 0.348-0.225 0.729-0.227 1.126 0 0.005 0 0.011 0 0.017zM20.894 5.554l-8.894 6.225-8.894-6.225c0.048-0.095 0.112-0.183 0.188-0.259 0.095-0.095 0.206-0.17 0.329-0.22 0.116-0.048 0.243-0.075 0.377-0.075h16c0.134 0 0.261 0.027 0.377 0.075 0.122 0.051 0.234 0.126 0.328 0.22 0.076 0.076 0.14 0.164 0.188 0.259z"/>
        </symbol>
        <symbol id="icon-phone" viewBox="0 0 24 24">
            <title>
                phone
            </title>
            <path d="M23 16.92c0.008-0.34-0.050-0.692-0.162-1.021-0.116-0.337-0.289-0.649-0.511-0.922-0.234-0.288-0.521-0.533-0.851-0.72-0.319-0.18-0.675-0.304-1.074-0.36-0.8-0.098-1.695-0.314-2.586-0.646-0.433-0.159-0.893-0.218-1.344-0.174-0.336 0.033-0.668 0.122-0.98 0.268-0.303 0.142-0.586 0.337-0.838 0.587l-0.72 0.72c-1.77-1.117-3.36-2.667-4.583-4.589l0.726-0.726c0.322-0.33 0.563-0.726 0.707-1.156 0.107-0.32 0.161-0.66 0.155-1.005-0.006-0.335-0.069-0.672-0.194-1.006-0.289-0.753-0.518-1.644-0.644-2.595-0.051-0.353-0.163-0.685-0.324-0.987-0.166-0.308-0.383-0.585-0.64-0.817-0.274-0.247-0.594-0.444-0.946-0.577-0.34-0.129-0.709-0.198-1.081-0.194h-2.996c-0.088 0-0.182 0.004-0.273 0.012-0.403 0.036-0.782 0.152-1.122 0.33-0.353 0.185-0.661 0.437-0.911 0.736s-0.442 0.649-0.561 1.029c-0.114 0.367-0.16 0.76-0.123 1.17 0.3 3.076 1.365 6.243 3.216 9.102 1.502 2.413 3.648 4.623 6.298 6.306 2.568 1.697 5.684 2.862 9.086 3.231 0.092 0.009 0.191 0.013 0.288 0.013 0.405-0.002 0.792-0.084 1.147-0.232 0.367-0.154 0.696-0.378 0.971-0.655s0.496-0.608 0.647-0.976c0.146-0.355 0.225-0.744 0.223-1.144zM21 16.92v3c0.001 0.141-0.026 0.27-0.074 0.387-0.050 0.122-0.124 0.233-0.216 0.326s-0.203 0.168-0.324 0.219c-0.116 0.049-0.245 0.076-0.382 0.077-0.036 0-0.068-0.002-0.088-0.004-3.060-0.333-5.873-1.388-8.174-2.909-2.428-1.543-4.359-3.538-5.702-5.694-1.697-2.62-2.655-5.481-2.924-8.238-0.012-0.13 0.004-0.26 0.041-0.38 0.039-0.127 0.103-0.244 0.187-0.345s0.187-0.185 0.304-0.246c0.112-0.058 0.237-0.097 0.374-0.109 0.034-0.003 0.064-0.004 0.084-0.004h3.004c0.14-0.001 0.261 0.022 0.373 0.064 0.116 0.044 0.222 0.109 0.314 0.192 0.086 0.078 0.159 0.171 0.215 0.275 0.054 0.101 0.092 0.213 0.109 0.333 0.141 1.072 0.408 2.118 0.756 3.025 0.039 0.105 0.060 0.216 0.061 0.325 0.002 0.113-0.016 0.225-0.052 0.333-0.049 0.145-0.131 0.281-0.242 0.395l-1.261 1.261c-0.324 0.324-0.379 0.814-0.162 1.201 1.584 2.785 3.839 4.957 6.381 6.378 0.397 0.222 0.882 0.144 1.195-0.166l1.27-1.27c0.081-0.080 0.174-0.144 0.273-0.19 0.102-0.048 0.212-0.078 0.325-0.089 0.152-0.015 0.31 0.005 0.459 0.060 1.022 0.381 2.070 0.636 3.034 0.754 0.111 0.016 0.229 0.057 0.333 0.116 0.108 0.061 0.204 0.143 0.283 0.239 0.075 0.092 0.133 0.197 0.172 0.31 0.038 0.11 0.057 0.228 0.054 0.372z"/>
        </symbol>
        <symbol id="icon-facebook" viewBox="0 0 24 24">
            <title>
                facebook
            </title>
            <path d="M6 12v9h-2c-0.137 0-0.266-0.027-0.382-0.075-0.122-0.050-0.232-0.125-0.325-0.218s-0.167-0.203-0.218-0.325c-0.048-0.116-0.075-0.245-0.075-0.382v-7c0-0.137 0.027-0.266 0.075-0.382 0.050-0.122 0.125-0.232 0.218-0.325s0.203-0.167 0.325-0.218c0.116-0.048 0.245-0.075 0.382-0.075zM15 8v-3c0-0.54-0.108-1.057-0.303-1.53-0.203-0.49-0.5-0.93-0.868-1.298s-0.809-0.666-1.299-0.869c-0.473-0.195-0.99-0.303-1.53-0.303-0.405 0-0.754 0.241-0.914 0.594l-3.736 8.406h-2.35c-0.405 0-0.793 0.081-1.148 0.228-0.368 0.152-0.698 0.375-0.974 0.651s-0.499 0.606-0.651 0.974c-0.146 0.354-0.227 0.742-0.227 1.147v7c0 0.405 0.081 0.793 0.228 1.148 0.152 0.368 0.375 0.698 0.651 0.974s0.606 0.499 0.974 0.651c0.354 0.146 0.742 0.227 1.147 0.227h14.28c0.369 0.004 0.737-0.063 1.077-0.191 0.351-0.132 0.67-0.328 0.944-0.573 0.256-0.229 0.472-0.502 0.638-0.807 0.162-0.298 0.275-0.627 0.33-0.976l1.38-9.002c0.061-0.401 0.039-0.797-0.053-1.17-0.095-0.387-0.266-0.746-0.498-1.060-0.231-0.314-0.524-0.584-0.865-0.79-0.329-0.199-0.7-0.336-1.1-0.397-0.165-0.025-0.333-0.037-0.492-0.034zM13 9c0 0.552 0.448 1 1 1h5.679c0.038-0.001 0.093 0.002 0.153 0.011 0.136 0.021 0.259 0.067 0.367 0.132 0.113 0.068 0.211 0.158 0.289 0.264s0.135 0.226 0.166 0.354c0.030 0.122 0.038 0.253 0.017 0.388l-1.38 8.998c-0.018 0.119-0.057 0.229-0.111 0.329-0.056 0.103-0.129 0.194-0.214 0.271-0.092 0.082-0.198 0.147-0.314 0.19-0.111 0.042-0.232 0.064-0.373 0.063h-10.279v-9.788l3.608-8.118c0.053 0.017 0.105 0.036 0.156 0.057 0.244 0.101 0.464 0.25 0.65 0.435s0.334 0.406 0.435 0.65c0.097 0.234 0.151 0.491 0.151 0.764z"/>
        </symbol>
        <symbol id="icon-chart-one" viewBox="0 0 32 32">
            <title>
                chart-one
            </title>
            <path d="M14 18v-14c-7.732 0-14 6.268-14 14s6.268 14 14 14 14-6.268 14-14c0-2.251-0.532-4.378-1.476-6.262l-12.524 6.262zM28.524 7.738c-2.299-4.588-7.043-7.738-12.524-7.738v14l12.524-6.262z"/>
        </symbol>
        <symbol id="icon-chart-two" viewBox="0 0 32 32">
            <title>
                chart-two
            </title>
            <path d="M4 28h28v4h-32v-32h4zM9 26c-1.657 0-3-1.343-3-3s1.343-3 3-3c0.088 0 0.176 0.005 0.262 0.012l3.225-5.375c-0.307-0.471-0.487-1.033-0.487-1.638 0-1.657 1.343-3 3-3s3 1.343 3 3c0 0.604-0.179 1.167-0.487 1.638l3.225 5.375c0.086-0.007 0.174-0.012 0.262-0.012 0.067 0 0.133 0.003 0.198 0.007l5.324-9.316c-0.329-0.482-0.522-1.064-0.522-1.691 0-1.657 1.343-3 3-3s3 1.343 3 3c0 1.657-1.343 3-3 3-0.067 0-0.133-0.003-0.198-0.007l-5.324 9.316c0.329 0.481 0.522 1.064 0.522 1.691 0 1.657-1.343 3-3 3s-3-1.343-3-3c0-0.604 0.179-1.167 0.487-1.638l-3.225-5.375c-0.086 0.007-0.174 0.012-0.262 0.012s-0.176-0.005-0.262-0.012l-3.225 5.375c0.307 0.471 0.487 1.033 0.487 1.637 0 1.657-1.343 3-3 3z"/>
        </symbol>
        <symbol id="icon-chart-three" viewBox="0 0 32 32">
            <title>
                chart-three
            </title>
            <path d="M0 26h32v4h-32zM4 18h4v6h-4zM10 10h4v14h-4zM16 16h4v8h-4zM22 4h4v20h-4z"/>
        </symbol>
        <symbol id="icon-dribbble" viewBox="0 0 32 32">
            <title>
                dribbble
            </title>
            <path d="M16 32c-8.825 0-16-7.175-16-16s7.175-16 16-16c8.825 0 16 7.175 16 16s-7.175 16-16 16v0zM29.494 18.188c-0.469-0.15-4.231-1.269-8.512-0.581 1.788 4.912 2.512 8.912 2.656 9.744 3.063-2.075 5.25-5.356 5.856-9.163v0zM21.337 28.6c-0.206-1.2-0.994-5.375-2.913-10.363-0.031 0.012-0.063 0.019-0.087 0.031-7.713 2.688-10.481 8.031-10.725 8.531 2.319 1.806 5.231 2.887 8.387 2.887 1.894 0 3.7-0.387 5.338-1.087v0zM5.844 25.156c0.313-0.531 4.063-6.738 11.106-9.019 0.175-0.056 0.356-0.113 0.538-0.162-0.344-0.775-0.719-1.556-1.106-2.319-6.819 2.044-13.444 1.956-14.044 1.95-0.006 0.137-0.006 0.275-0.006 0.419 0 3.506 1.331 6.712 3.512 9.131v0zM2.625 13.219c0.612 0.006 6.244 0.031 12.637-1.662-2.262-4.025-4.706-7.412-5.069-7.906-3.825 1.806-6.688 5.331-7.569 9.569v0zM12.8 2.731c0.375 0.506 2.863 3.888 5.1 8 4.863-1.819 6.919-4.588 7.163-4.938-2.413-2.144-5.587-3.444-9.063-3.444-1.1 0.006-2.175 0.138-3.2 0.381v0zM26.581 7.381c-0.288 0.388-2.581 3.325-7.631 5.388 0.319 0.65 0.625 1.313 0.906 1.981 0.1 0.238 0.2 0.469 0.294 0.706 4.55-0.569 9.069 0.344 9.519 0.438-0.031-3.225-1.188-6.188-3.087-8.512v0z"/>
        </symbol>
        <symbol id="icon-instagram" viewBox="0 0 32 32">
            <title>instagram</title>
            <path d="M16 2.881c4.275 0 4.781 0.019 6.462 0.094 1.563 0.069 2.406 0.331 2.969 0.55 0.744 0.288 1.281 0.638 1.837 1.194 0.563 0.563 0.906 1.094 1.2 1.838 0.219 0.563 0.481 1.412 0.55 2.969 0.075 1.688 0.094 2.194 0.094 6.463s-0.019 4.781-0.094 6.463c-0.069 1.563-0.331 2.406-0.55 2.969-0.288 0.744-0.637 1.281-1.194 1.837-0.563 0.563-1.094 0.906-1.837 1.2-0.563 0.219-1.413 0.481-2.969 0.55-1.688 0.075-2.194 0.094-6.463 0.094s-4.781-0.019-6.463-0.094c-1.563-0.069-2.406-0.331-2.969-0.55-0.744-0.288-1.281-0.637-1.838-1.194-0.563-0.563-0.906-1.094-1.2-1.837-0.219-0.563-0.481-1.413-0.55-2.969-0.075-1.688-0.094-2.194-0.094-6.463s0.019-4.781 0.094-6.463c0.069-1.563 0.331-2.406 0.55-2.969 0.288-0.744 0.638-1.281 1.194-1.838 0.563-0.563 1.094-0.906 1.838-1.2 0.563-0.219 1.412-0.481 2.969-0.55 1.681-0.075 2.188-0.094 6.463-0.094zM16 0c-4.344 0-4.887 0.019-6.594 0.094-1.7 0.075-2.869 0.35-3.881 0.744-1.056 0.412-1.95 0.956-2.837 1.85-0.894 0.888-1.438 1.781-1.85 2.831-0.394 1.019-0.669 2.181-0.744 3.881-0.075 1.713-0.094 2.256-0.094 6.6s0.019 4.887 0.094 6.594c0.075 1.7 0.35 2.869 0.744 3.881 0.413 1.056 0.956 1.95 1.85 2.837 0.887 0.887 1.781 1.438 2.831 1.844 1.019 0.394 2.181 0.669 3.881 0.744 1.706 0.075 2.25 0.094 6.594 0.094s4.888-0.019 6.594-0.094c1.7-0.075 2.869-0.35 3.881-0.744 1.050-0.406 1.944-0.956 2.831-1.844s1.438-1.781 1.844-2.831c0.394-1.019 0.669-2.181 0.744-3.881 0.075-1.706 0.094-2.25 0.094-6.594s-0.019-4.887-0.094-6.594c-0.075-1.7-0.35-2.869-0.744-3.881-0.394-1.063-0.938-1.956-1.831-2.844-0.887-0.887-1.781-1.438-2.831-1.844-1.019-0.394-2.181-0.669-3.881-0.744-1.712-0.081-2.256-0.1-6.6-0.1v0z"></path>
            <path d="M16 7.781c-4.537 0-8.219 3.681-8.219 8.219s3.681 8.219 8.219 8.219 8.219-3.681 8.219-8.219c0-4.537-3.681-8.219-8.219-8.219zM16 21.331c-2.944 0-5.331-2.387-5.331-5.331s2.387-5.331 5.331-5.331c2.944 0 5.331 2.387 5.331 5.331s-2.387 5.331-5.331 5.331z"></path>
            <path d="M26.462 7.456c0 1.060-0.859 1.919-1.919 1.919s-1.919-0.859-1.919-1.919c0-1.060 0.859-1.919 1.919-1.919s1.919 0.859 1.919 1.919z"></path>
        </symbol>
    </defs>
</svg>
